<svg xmlns="http://www.w3.org/2000/svg" viewBox="0 0 778 778"><defs><style>.cls-1{fill:#dbeae9;}.cls-2{fill:#fff;opacity:0.64;}.cls-3{fill:#808083;}.cls-4{fill:#d0d1d2;}.cls-5{fill:#c14805;}.cls-6{fill:#ada02a;}.cls-7{fill:#3f3f42;}.cls-8{fill:#a3ce59;}.cls-9{fill:#ddad17;}.cls-10{fill:#aa5d00;}.cls-11{fill:#6b3903;}.cls-12{fill:#56b1b2;opacity:0.57;}</style></defs><g id="Background"><rect class="cls-1" y="3.57" width="778" height="778"/><path class="cls-2" d="M427.07,195.83l186.2,0c2.31-13.39-13.23-26.24-25.95-21.45,4.12-22-14.82-45.45-37.24-46s-42.52,21.86-39.51,44.09a14.15,14.15,0,0,0-25.94,1.87C463.25,170.65,442,180.08,427.07,195.83Z"/><path class="cls-3" d="M105.2,235.5c.34-.63.7-1.24,1.06-1.86s.89-1.16,1.37-1.73,1.06-1,1.61-1.51,1.2-.86,1.81-1.28l2-1,2.1-.76c.73-.16,1.46-.33,2.19-.47s1.49-.1,2.24-.13,1.44.15,2.18.23l2.19.55,2,.8c.64.36,1.28.69,1.93,1s1.21.79,1.82,1.19,1.13.9,1.69,1.35L133,233.4l1.38,1.7h-.77l1.2-2,1.45-1.87c.57-.55,1.12-1.12,1.7-1.67l1.91-1.43,2.07-1.2,2.2-.94c.77-.23,1.54-.46,2.31-.67l2.46-.34h2.28c.82.1,1.64.19,2.45.31l2.31.63,2.2.9c.7.38,1.39.78,2.06,1.18l1.89,1.41c.57.54,1.12,1.09,1.67,1.64s1,1.23,1.4,1.85L165,233c-.58-.5-1.13-1-1.69-1.52s-1.23-.86-1.82-1.31l-1.93-1.1c-.69-.28-1.36-.57-2-.88l-2.09-.65-2.14-.43c-.71-.05-1.4-.13-2.1-.2l-2.29.07c.13,0,0,0,.06,0h-.13l-.13,0-.27,0-.53.07-1.07.15c-.69.2-1.4.36-2.1.53l-2,.77-1.94,1-1.82,1.22c-.55.47-1.13.93-1.69,1.4l-1.55,1.58-1.34,1.78-.42.56-.35-.54-1.16-1.74L131,232.31c-.54-.44-1.07-.9-1.63-1.32s-1.19-.73-1.8-1.07-1.29-.54-1.93-.79l-2-.51-2-.25c-.68,0-1.47,0-2.08,0s-1.34.13-2,.18-1.32.27-2,.4l-1.94.62-1.86.83c-.58.35-1.18.68-1.78,1s-1.11.81-1.67,1.22-1,.91-1.54,1.38-.93,1.08-1.42,1.6Z"/><path class="cls-3" d="M59.52,278.16c.34-.63.7-1.24,1.06-1.86s.89-1.16,1.38-1.73l1.6-1.51c.6-.42,1.2-.86,1.81-1.28l2-1,2.1-.76c.73-.16,1.46-.33,2.19-.47s1.5-.11,2.24-.13,1.45.15,2.18.23l2.19.55,2.05.8c.64.36,1.29.69,1.93,1s1.21.79,1.82,1.18,1.13.91,1.69,1.36l1.55,1.53,1.38,1.69-.77,0,1.2-2,1.46-1.87c.56-.56,1.11-1.12,1.69-1.67l1.91-1.43,2.07-1.2,2.2-.94c.77-.23,1.54-.47,2.32-.67l2.45-.35h2.29c.81.1,1.63.19,2.44.31l2.31.63,2.2.9c.7.38,1.39.78,2.06,1.17l1.89,1.42c.57.54,1.12,1.09,1.67,1.64s1,1.23,1.4,1.85l-.14.12c-.59-.5-1.14-1-1.69-1.52s-1.23-.86-1.82-1.31l-1.94-1.1-2-.88-2.09-.66-2.14-.42c-.7,0-1.4-.13-2.1-.2l-2.28.07c.12,0,0,0,0,0h-.12l-.14,0-.26,0-.54.07-1.07.15c-.69.2-1.4.36-2.1.53l-2,.77-1.94,1-1.82,1.22c-.55.47-1.12.93-1.69,1.4L90,276.45l-1.34,1.78-.41.55-.36-.53-1.16-1.74L85.33,275c-.54-.44-1.07-.9-1.63-1.32s-1.19-.73-1.8-1.07-1.29-.54-1.93-.79l-2-.51L76,271c-.69,0-1.48,0-2.09,0s-1.34.14-2,.19-1.32.27-2,.4l-1.93.62-1.87.83c-.58.35-1.18.68-1.78,1s-1.1.81-1.67,1.22-1,.91-1.54,1.38-.93,1.08-1.42,1.6Z"/><path class="cls-3" d="M161.26,278.16c.34-.63.7-1.24,1.06-1.86s.89-1.16,1.38-1.73,1.05-1,1.6-1.51,1.2-.86,1.81-1.28l2-1,2.1-.76c.73-.16,1.46-.33,2.19-.47s1.5-.11,2.24-.13,1.45.15,2.18.23l2.19.55,2.05.8c.64.36,1.29.69,1.93,1s1.21.79,1.82,1.18,1.13.91,1.69,1.36l1.55,1.53,1.38,1.69-.77,0,1.2-2,1.45-1.87c.57-.56,1.12-1.12,1.7-1.67l1.91-1.43,2.07-1.2,2.2-.94c.77-.23,1.54-.47,2.31-.67l2.46-.35h2.28c.82.1,1.64.19,2.45.31l2.31.63,2.2.9c.7.38,1.39.78,2.06,1.17l1.89,1.42c.57.54,1.12,1.09,1.67,1.64s1,1.23,1.4,1.85l-.14.12c-.59-.5-1.14-1-1.69-1.52s-1.24-.86-1.83-1.31l-1.93-1.1-2-.88-2.09-.66-2.14-.42c-.7,0-1.4-.13-2.1-.2l-2.29.07c.13,0,0,0,.06,0h-.12l-.14,0-.27,0-.53.07-1.07.15c-.69.2-1.4.36-2.1.53l-2,.77-1.94,1L195,273.47c-.55.47-1.13.93-1.69,1.4l-1.55,1.58-1.34,1.78-.42.55-.35-.53-1.16-1.74L187.07,275c-.54-.44-1.07-.9-1.63-1.32s-1.19-.73-1.8-1.07-1.29-.54-1.93-.79l-2-.51-2-.26c-.68,0-1.47,0-2.08,0s-1.34.14-2,.19-1.32.27-2,.4l-1.93.62-1.87.83c-.58.35-1.18.68-1.78,1s-1.1.81-1.67,1.22-1,.91-1.54,1.38-.93,1.08-1.42,1.6Z"/></g><g id="Ship"><path class="cls-4" d="M428.31,148.13q5.81,1.16,11.56,2.43c3.87.69,7.75,1.33,11.61,2.06l11.66,1.64c3.91.37,7.81.8,11.72,1.26l11.75.94c3.93.15,7.86.29,11.79.37,3.94-.09,7.87-.25,11.8-.4,3.92-.31,7.83-.73,11.75-1.09,3.89-.55,7.78-1.13,11.67-1.65l11.6-2.07,11.49-2.55,11.39-3a308.37,308.37,0,0,0,44.25-16.16l.09.17A218.34,218.34,0,0,1,568.65,148l-11.48,3-11.62,2.38-11.71,1.82c-3.93.43-7.87.79-11.79,1.19-3.94.25-7.88.43-11.82.72-3.94.1-7.88.19-11.82.35-3.94,0-7.89,0-11.84.07l-11.84-.42c-3.93-.36-7.87-.73-11.79-1.18l-11.71-1.86c-3.87-.8-7.72-1.68-11.58-2.52q-5.72-1.56-11.39-3.22Z"/><path class="cls-4" d="M729.91,284.57c-.23,6.46-.64,12.9-1.09,19.33s-1,12.87-1.66,19.28S725.61,336,725,342.41s-1.1,12.85-1.51,19.29-.83,12.87-1.35,19.3-1,12.86-1.6,19.28c-1.23,12.84-2.6,25.67-4.34,38.46H716c.55-12.9,1.48-25.77,2.53-38.63.55-6.42,1.2-12.84,1.83-19.26s1.34-12.83,2.09-19.24,1.41-12.82,1.93-19.25.8-12.88,1.24-19.31,1.14-12.85,1.77-19.27,1.43-12.82,2.35-19.21Z"/><polygon class="cls-5" points="338.61 557.6 198.87 505.99 198.87 509.77 341.08 572.12 338.61 557.6"/><polygon class="cls-6" points="328.38 562.8 315.95 549.89 738 549.89 738 562.8 328.38 562.8"/><polygon class="cls-7" points="618.41 539.05 760.82 527.55 760.82 533.3 618.56 543.91 618.41 539.05"/><polygon class="cls-7" points="440.22 539.05 582.63 527.55 582.63 533.3 440.37 543.91 440.22 539.05"/><polygon class="cls-7" points="602.82 159.95 629.26 141.06 629.26 144.84 602.82 163.1 602.82 159.95"/><polygon class="cls-7" points="418.23 169.39 444.67 150.5 444.67 154.28 418.23 172.54 418.23 169.39"/><polygon class="cls-7" points="431.45 549.89 424.69 115.89 428.07 112.74 440.22 549.89 431.45 549.89"/><polygon class="cls-7" points="609.75 549.89 609.75 98.89 612.89 95.12 618.41 549.89 609.75 549.89"/><polygon class="cls-7" points="435.3 372.69 560.65 288.99 560.65 294.65 435.49 379.66 435.3 372.69"/><polygon class="cls-7" points="614.08 356.95 739.43 273.25 739.43 278.92 614.27 363.92 614.08 356.95"/><path class="cls-4" d="M425.3,149.23l-20.51,17.35-19.74,18.21-19,19-18.14,19.78a622.43,622.43,0,0,0-63.67,86.25,613.4,613.4,0,0,0-48,95.85l-9.35,25.16-8.22,25.56-7.16,25.88-6,26.19,5.53-26.3,6.72-26,8-25.68,9.13-25.31a600.94,600.94,0,0,1,47.74-96.31,610.27,610.27,0,0,1,64.2-86.22L365.22,203l19.2-18.82,20.07-17.9Z"/><path class="cls-8" d="M410.48,172.54C366.32,233.8,307.06,334.72,304.68,418.7c-27.37,10.69-53.56,26.51-74.66,47C271.15,353.43,349.74,237.68,410.48,172.54Z"/><path class="cls-8" d="M305.52,481.4c17.15-57.71,57.6-113.8,105.64-150.08C344.54,379,268,445.72,213.08,506.55,238.35,492.87,276.81,480.3,305.52,481.4Z"/><path class="cls-8" d="M354.18,495.75c11.89-51.85,32.73-102.27,62.94-146.07-55,50.45-113.54,111.39-159.75,170C285.48,510.13,324.63,498.46,354.18,495.75Z"/><path class="cls-8" d="M332.16,544.86,422.8,375.54c-8.84,33.6-14.67,67.95-15,102.7-.11,10.13.17,20.39,2.92,30.14s8.23,19,16.69,24.62c-16.07-4-32.61-6.16-49.11-4.71S345.52,535.07,332.16,544.86Z"/><path class="cls-8" d="M727.92,287.12c-13.16,42.69-16.24,71.26-15.71,98.93.95,49.23,11.06,91.9,32.38,136.28-38.5-9.62-77,.66-113.76,15.59C598,488.51,587.23,430.44,617.28,357.8Z"/><path class="cls-8" d="M632.24,148.67c6.56,45.21,51.4,96,88.92,122.06-44.4,13.22-77.26,34.64-92.53,72.38-27.85-15.09-53.19-132.5-26.8-178.73,7.39.82,15.41-2.3,21.46-6.6C626.56,155.27,629,151.17,632.24,148.67Z"/><path class="cls-9" d="M772,297.63l-3.16,12.13a18.37,18.37,0,0,0-.88,6.3c.21,2.13,1.27,5,3.21,5.91-4.7,2.33-10.22,2.27-15.41,1.51s-10.31-2.15-15.55-2.32-10.54.48-14.19,4.24a39.11,39.11,0,0,0,3.23-35.89c4.06-2.62,9.58-1.4,14.26-.22s9,3.44,13.55,5.11S767.37,298.85,772,297.63Z"/><rect class="cls-5" x="597.08" y="527.55" width="128.88" height="22.35"/><rect class="cls-10" x="553.88" y="543.91" width="99.14" height="5.98"/><rect class="cls-9" x="549.64" y="538.99" width="109.05" height="4.98"/><path class="cls-9" d="M733.75,529.19h-143v-4.86q72.16-16.62,143,0Z"/><path class="cls-8" d="M546,304.79c-13.2,24.32-16.27,52.89-15.74,80.56,1,49.23,11.06,91.9,32.38,136.28-38.5-9.62-77,.66-113.76,15.59a236.22,236.22,0,0,1-13.51-161.75Z"/><path class="cls-9" d="M657.17,106.33c-14.46-8.61-32.74-12.22-43-11,2.15,1.54,7.93,12.75-1.15,19.84A97.85,97.85,0,0,1,657.17,106.33Z"/><path class="cls-9" d="M428.29,114.42l2.37,1.52a12,12,0,0,1-.16,14.68,3.66,3.66,0,0,1-2,1.73c6.51,1.65,12.55-9.1,39.47-7.06-6.18-3.62-12-7.92-18.71-10.34S435.29,112.93,428.29,114.42Z"/></g><g id="Foreground"><path class="cls-2" d="M399.75,242.34l107.49-.27C501.61,232,488.3,227,477.43,230.88c1.31-9.58-6.81-19.36-16.46-19.85s-18.7,8.45-18.35,18.11A13.25,13.25,0,0,0,419,233.5C413,230.65,402.07,236.2,399.75,242.34Z"/><path class="cls-11" d="M328.38,562.8c15.24,15,23,31,21.44,48.26,125.07,26.54,235.83,21.2,337.38-4.67l43.59-43.59Z"/><path class="cls-8" d="M442.68,365.05C463.45,324,497.5,300.67,539.52,288c-50.51-36.78-84-85.45-93.23-130.8-8.4,10.44-18.28,16.44-30.4,15.71C409,252,413.41,319.68,442.68,365.05Z"/><path class="cls-12" d="M40.3,572a1910.42,1910.42,0,0,1,284,25.77c68,11.34,135.68,26.39,204.55,29.25S669.13,619.62,728,583.82C615.57,612,497.75,604.57,382.62,590.89S155.81,562,40.3,572Z"/></g></svg>